Coordinates
version=1
nRows=16
nColumns=33
inDegrees=yes

Units are S.I. units (second, meters, Newtons, ...)
Angles are in degrees.

endheader
time	ground_thorax_rot_x	ground_thorax_rot_y	ground_thorax_rot_z	ground_thorax_tx	ground_thorax_ty	ground_thorax_tz	clav_prot_r	clav_elev_r	scapula_abduction_r	scapula_elevation_r	scapula_upward_rot_r	scapula_winging_r	shoulder_elv_r	plane_of_elev_r	axial_rot_r	elbow_flexion_r	pro_sup_r	wrist_flex_r	wrist_dev_r	clav_prot_l	clav_elev_l	scapula_abduction_l	scapula_elevation_l	scapula_upward_rot_l	scapula_winging_l	shoulder_elv_l	plane_of_elev_l	axial_rot_l	elbow_flexion_l	pro_sup_l	wrist_flex_l	wrist_dev_l
      9.97000000	    -34.99653321	    -28.08902327	     33.68291430	    -96.12467345	    843.36785449	    -40.75255127	     45.00000000	    -45.00000000	     40.94158074	    -45.00000000	    -37.69336336	  -1090.80682172	  -2256.35290642	    -90.00000000	     27.03958146	   1059.67433422	    100.92580755	     13.54858239	     11.28245816	     -2.83029552	     38.69949432	    -36.46005520	    -45.00000000	    -24.41594371	  -3497.86833756	  -2259.54494175	    143.16523883	    179.99999979	   1437.61167277	   -322.66778405	     15.33439970	    -23.67266098
      9.98000000	    -34.98483247	    -27.91275877	     33.47510003	    -96.82479711	    844.72282051	    -40.79125934	     45.00000000	    -45.00000000	     41.13551751	    -45.00000000	    -37.53253278	  -1090.91743436	  -2256.27347695	    -90.00000000	     26.97946261	   1059.54572958	    100.28306587	     13.61903370	     11.32132498	     -2.88367837	     38.73792590	    -36.45459185	    -45.00000000	    -24.22250049	  -3497.85559787	  -2259.51627228	    143.19898844	    179.99999979	   1437.72006805	   -322.80888230	     15.27525753	    -23.72708185
      9.99000000	    -35.04680312	    -27.67946406	     33.20669825	    -97.49322367	    846.00719262	    -40.82101785	     45.00000000	    -45.00000000	     41.16996760	    -45.00000000	    -37.33555471	  -1090.92778999	  -2256.20117860	    -90.00000000	     26.92635876	   1059.48718888	     99.69956683	     13.67309543	     11.33859902	     -2.89171599	     38.77153941	    -36.54671621	    -45.00000000	    -24.02325729	  -3497.82989771	  -2259.47790333	    143.20734182	    179.99999979	   1437.77021475	   -322.93133400	     15.22258159	    -23.77336399
     10.00000000	    -35.20333917	    -27.37169914	     32.82617227	    -98.13190629	    847.21735338	    -40.84112965	     45.00000000	    -45.00000000	     41.03851012	    -45.00000000	    -37.08339317	  -1090.82213375	  -2256.11601659	    -90.00000000	     26.85815262	   1059.46814352	     99.21792899	     13.72559493	     11.35038948	     -2.91795673	     38.79677630	    -36.74794422	    -45.00000000	    -23.77601247	  -3497.73634979	  -2259.44863859	    143.19326458	    179.99999979	   1437.80185824	   -323.03573998	     15.19215226	    -23.87360771
     10.01000000	    -35.35163285	    -27.02620705	     32.41870069	    -98.73980797	    848.34726813	    -40.85111328	     45.00000000	    -45.00000000	     40.96818498	    -45.00000000	    -36.90357564	  -1090.78275266	  -2256.01788821	    -90.00000000	     26.77465812	   1059.37581520	     98.82484563	     13.78899530	     11.39766423	     -2.96152605	     38.84162247	    -36.95871747	    -45.00000000	    -23.49998512	  -3497.68028475	  -2259.47978739	    143.21395293	    179.99999979	   1437.82684092	   -323.12057179	     15.16989813	    -23.97688355
     10.02000000	    -35.33022677	    -26.85372925	     32.19232054	    -99.31755999	    849.39818576	    -40.85051259	     45.00000000	    -45.00000000	     41.24769611	    -45.00000000	    -36.71011796	  -1090.93416787	  -2255.96677204	    -90.00000000	     26.73700816	   1059.18604931	     98.48066299	     13.82836710	     11.47021538	     -2.93168514	     38.87909462	    -36.97352128	    -45.00000000	    -23.20644757	  -3497.62999780	  -2259.54206679	    143.23652952	    179.99999979	   1437.87152802	   -323.18624184	     15.09476608	    -23.98614549
     10.03000000	    -35.31497616	    -26.74607015	     32.06551021	    -99.86434561	    850.37142808	    -40.83791390	     45.00000000	    -45.00000000	     41.35364986	    -45.00000000	    -36.52381309	  -1090.95905023	  -2255.95651390	    -90.00000000	     26.73973644	   1059.19770598	     98.12686314	     13.87996157	     11.47319210	     -3.05679867	     38.90357392	    -36.97228786	    -45.00000000	    -23.03972091	  -3497.55721359	  -2259.52582999	    143.25534214	    179.99999979	   1438.03110345	   -323.26505506	     15.03076680	    -24.10840881
     10.04000000	    -35.34660517	    -26.55226085	     31.91682875	   -100.37536348	    851.26368850	    -40.81172493	     45.00000000	    -45.00000000	     41.29379456	    -45.00000000	    -36.54956660	  -1090.99764568	  -2255.84844904	    -90.00000000	     26.64457595	   1059.05867235	     97.79358088	     13.91649212	     11.53826631	     -2.93914921	     38.90280478	    -37.04636710	    -45.00000000	    -22.81086764	  -3497.54075629	  -2259.54056466	    143.24890712	    179.99999979	   1438.05299051	   -323.28755134	     14.91822297	    -24.06824142
     10.05000000	    -35.35418101	    -26.47196978	     31.83368836	   -100.84773513	    852.07445960	    -40.77014352	     45.00000000	    -45.00000000	     41.30772323	    -45.00000000	    -36.38606641	  -1090.98955436	  -2255.86989964	    -90.00000000	     26.67893846	   1059.09813251	     97.44544217	     13.95080575	     11.52127239	     -3.09387381	     38.98506932	    -37.10135120	    -45.00000000	    -22.65847716	  -3497.48129440	  -2259.48130137	    143.29088776	    179.99999979	   1438.16973317	   -323.30464054	     14.88353602	    -24.24759755
     10.06000000	    -35.35242404	    -26.31572701	     31.69709197	   -101.28077145	    852.80580951	    -40.71213974	     45.00000000	    -45.00000000	     41.33417121	    -45.00000000	    -36.47223757	  -1091.04327685	  -2255.77603888	    -90.00000000	     26.59808874	   1058.91542927	     97.11579474	     13.98823184	     11.62364602	     -2.93044864	     38.90100766	    -37.07631412	    -45.00000000	    -22.46245051	  -3497.50272135	  -2259.54877586	    143.24698884	    179.99999979	   1438.19254064	   -323.24294903	     14.70130566	    -24.14295093
     10.07000000	    -35.37861579	    -26.28164194	     31.63970993	   -101.67370042	    853.45674059	    -40.63705064	     45.00000000	    -45.00000000	     41.27516210	    -45.00000000	    -36.37477159	  -1091.04248285	  -2255.83930907	    -90.00000000	     26.67440192	   1058.99941886	     96.76023426	     13.99805283	     11.57649857	     -3.17044424	     39.08095183	    -37.19727274	    -45.00000000	    -22.38837209	  -3497.43561868	  -2259.50880751	    143.37311724	    179.99999979	   1438.28352083	   -323.16002706	     14.72898346	    -24.45896804
     10.08000000	    -35.32749575	    -26.15377430	     31.56597038	   -102.02117981	    854.01705327	    -40.54605636	     45.00000000	    -45.00000000	     41.36997738	    -45.00000000	    -36.48839697	  -1091.09586989	  -2255.72973510	    -90.00000000	     26.57777460	   1058.74485024	     96.42829634	     14.05446520	     11.73500358	     -2.88830171	     38.85067994	    -37.02820467	    -45.00000000	    -22.17157134	  -3497.46139736	  -2259.58755969	    143.19715232	    179.99999979	   1438.37537667	   -322.99865398	     14.40938384	    -24.24367793
     10.09000000	    -35.35421070	    -26.12424966	     31.64230613	   -102.32770387	    854.49130311	    -40.43821142	     45.00000000	    -45.00000000	     41.20491196	    -45.00000000	    -36.38798497	  -1091.04695230	  -2255.83003131	    -90.00000000	     26.69080505	   1058.86813534	     96.06429653	     14.04897071	     11.63140514	     -3.35584124	     39.24677937	    -37.38865096	    -45.00000000	    -22.14901739	  -3497.40174118	  -2259.52401188	    143.53239268	    179.99999979	   1438.56815410	   -322.86406464	     14.56167013	    -24.62484409
     10.10000000	    -35.26055775	    -26.08742012	     31.74113574	   -102.58930920	    854.87012654	    -40.31500765	     45.00000000	    -45.00000000	     41.16466849	    -45.00000000	    -36.48514361	  -1091.12215655	  -2255.80500437	    -90.00000000	     26.68011750	   1058.81073314	     95.66877921	     14.06030230	     11.72966830	     -2.98808229	     38.87292261	    -37.07527958	    -45.00000000	    -21.94471522	  -3497.46662741	  -2259.57182173	    143.27249492	    179.99999979	   1438.53426302	   -322.58397844	     14.13787385	    -24.60115095
     10.11000000	    -35.26474468	    -26.02705403	     31.70077633	   -102.80816174	    855.15345454	    -40.17672004	     45.00000000	    -45.00000000	     41.11343992	    -45.00000000	    -36.52107651	  -1091.19302761	  -2255.77035508	    -90.00000000	     26.65974861	   1058.61897113	     95.28141292	     14.11693993	     11.77663739	     -3.22959449	     39.13136239	    -37.14467012	    -45.00000000	    -21.92702303	  -3497.40378882	  -2259.64926655	    143.30133789	    179.99999979	   1438.74791688	   -322.29186057	     14.20859800	    -24.69006075
     10.12000000	    -35.20240743	    -26.02813212	     31.74793345	   -102.98754759	    855.34168662	    -40.02454311	     45.00000000	    -45.00000000	     41.12976651	    -45.00000000	    -36.62711610	  -1091.24542606	  -2255.78616116	    -90.00000000	     26.68889398	   1058.47176534	     94.91864440	     14.13075344	     11.88867299	     -3.08854709	     38.92424788	    -37.05894111	    -45.00000000	    -21.76690203	  -3497.43399384	  -2259.76036845	    143.31834686	    179.99999979	   1438.74052882	   -322.07268262	     13.88241340	    -24.74174405
